<svg xmlns="http://www.w3.org/2000/svg" viewBox="0 0 128 128">
  <defs>
    <linearGradient id="g1" x1="0%" y1="0%" x2="100%" y2="100%">
      <stop offset="0%" stop-color="#1e40af"/>
      <stop offset="40%" stop-color="#3b82f6"/>
      <stop offset="70%" stop-color="#60a5fa"/>
      <stop offset="100%" stop-color="#1e3a5f"/>
    </linearGradient>
    <linearGradient id="g2" x1="0%" y1="0%" x2="0%" y2="100%">
      <stop offset="0%" stop-color="#93c5fd"/>
      <stop offset="100%" stop-color="#1e40af"/>
    </linearGradient>
    <filter id="shadow" x="-10%" y="-10%" width="130%" height="130%">
      <feDropShadow dx="0" dy="2" stdDeviation="3" flood-color="#000" flood-opacity="0.3"/>
    </filter>
  </defs>
  <polygon points="64,8 95,32 112,64 95,96 64,120 33,96 16,64 33,32" fill="url(#g1)" filter="url(#shadow)"/>
  <polygon points="64,8 95,32 112,64 64,64" fill="url(#g2)" opacity="0.5"/>
  <polygon points="64,8 33,32 16,64 64,64" fill="#60a5fa" opacity="0.3"/>
  <polygon points="64,20 88,38 100,64 88,90 64,108 40,90 28,64 40,38" fill="none" stroke="#bfdbfe" stroke-width="1.5" opacity="0.6"/>
  <line x1="64" y1="8" x2="64" y2="120" stroke="#93c5fd" stroke-width="0.8" opacity="0.4"/>
  <line x1="16" y1="64" x2="112" y2="64" stroke="#93c5fd" stroke-width="0.8" opacity="0.4"/>
  <line x1="33" y1="32" x2="95" y2="96" stroke="#93c5fd" stroke-width="0.5" opacity="0.3"/>
  <line x1="95" y1="32" x2="33" y2="96" stroke="#93c5fd" stroke-width="0.5" opacity="0.3"/>
  <circle cx="48" cy="44" r="6" fill="#bfdbfe" opacity="0.25"/>
</svg>